<?xml version="1.0" encoding="UTF-8" standalone="no"?>
<svg
   xmlns:dc="http://purl.org/dc/elements/1.1/"
   xmlns:cc="http://creativecommons.org/ns#"
   xmlns:rdf="http://www.w3.org/1999/02/22-rdf-syntax-ns#"
   xmlns:svg="http://www.w3.org/2000/svg"
   xmlns="http://www.w3.org/2000/svg"
   xmlns:sodipodi="http://sodipodi.sourceforge.net/DTD/sodipodi-0.dtd"
   xmlns:inkscape="http://www.inkscape.org/namespaces/inkscape"
   version="1.1"
   id="svg833"
   width="666.66669"
   height="666.66669"
   viewBox="0 0 666.66669 666.66669"
   sodipodi:docname="fav-icon.svg"
   inkscape:version="1.0.1 (3bc2e813f5, 2020-09-07)"
   inkscape:export-filename="C:\Users\ASUS ROG GL752VW\Desktop\Kode.png"
   inkscape:export-xdpi="96"
   inkscape:export-ydpi="96">
  <metadata
     id="metadata839">
    <rdf:RDF>
      <cc:Work
         rdf:about="">
        <dc:format>image/svg+xml</dc:format>
        <dc:type
           rdf:resource="http://purl.org/dc/dcmitype/StillImage" />
        <dc:title></dc:title>
      </cc:Work>
    </rdf:RDF>
  </metadata>
  <defs
     id="defs837" />
  <sodipodi:namedview
     pagecolor="#ffffff"
     bordercolor="#666666"
     borderopacity="1"
     objecttolerance="10"
     gridtolerance="10"
     guidetolerance="10"
     inkscape:pageopacity="0"
     inkscape:pageshadow="2"
     inkscape:window-width="1920"
     inkscape:window-height="1017"
     id="namedview835"
     showgrid="false"
     inkscape:zoom="1.2405"
     inkscape:cx="468.85264"
     inkscape:cy="330.91327"
     inkscape:window-x="-8"
     inkscape:window-y="-8"
     inkscape:window-maximized="1"
     inkscape:current-layer="g841"
     inkscape:document-rotation="0"
     inkscape:pagecheckerboard="true"
     showborder="true"
     inkscape:showpageshadow="false" />
  <g
     inkscape:groupmode="layer"
     inkscape:label="Image"
     id="g841">
    <path
       style="fill:#181615;fill-opacity:1;stroke-width:1.33333"
       d="M 116.7085,665.18565 C 79.541434,660.4646 45.517854,639.64921 23.93375,608.42672 11.46501,590.39005 4.22246,570.97309 1.42317,548.07682 c -1.89756,-15.52064 -1.89756,-413.88265 0,-429.4033 C 9.05778,56.227801 56.227804,9.05778 118.67352,1.42317 c 15.52065,-1.89756 413.88259,-1.89756 429.40329,0 31.112,3.80376 56.7931,16.209981 78.8851,38.108391 21.7708,21.58009 34.5509,47.94356 38.3652,79.141959 1.8976,15.52065 1.8976,413.88266 0,429.4033 -3.8037,31.11204 -16.21,56.79316 -38.1084,78.88513 -21.5801,21.77084 -47.9435,34.55092 -79.1419,38.36524 -14.0818,1.72162 -417.74295,1.58918 -431.36831,-0.14154 z M 231.09208,565.688 c 1.99033,-2.19938 8.98633,-43.14719 28.30063,-165.64616 2.4859,-15.76666 8.2037,-51.46666 12.7064,-79.33333 4.5026,-27.86667 9.328,-57.86667 10.7232,-66.66667 1.3952,-8.8 4.8894,-30.7 7.7649,-48.66667 2.8755,-17.96667 7.7882,-48.67372 10.9172,-68.2379 4.733,-29.59364 5.3968,-35.92334 3.95,-37.666659 -1.5004,-1.80786 -6.5529,-2.09544 -36.814,-2.09544 -28.5398,0 -35.4279,0.35314 -36.9702,1.89544 -1.04249,1.042489 -2.60955,6.592489 -3.48235,12.333329 -0.87281,5.74084 -2.75106,17.63789 -4.1739,26.43789 -2.69742,16.68286 -9.4484,59.32275 -12.66606,80.00001 -2.9777,19.13526 -10.5152,66.61703 -19.26106,121.33334 -4.45423,27.86666 -11.10204,69.86666 -14.77294,93.33333 -3.6709,23.46667 -9.90756,62.76667 -13.85925,87.33334 -6.53039,40.59779 -6.98987,44.81849 -5.04401,46.33333 1.5856,1.23439 11.0126,1.66667 36.34605,1.66667 30.99661,0 34.405,-0.2208 36.33539,-2.35385 z m 241.99473,-36.724 c 23.1808,-23.29202 25.6217,-26.17551 25.6217,-30.26858 0,-3.56795 -8.6486,-18.89428 -40.9226,-72.52034 -22.5075,-37.39796 -40.9575,-68.98542 -41,-70.19436 -0.043,-1.20893 3.5226,-6.06905 7.9226,-10.80026 4.4,-4.73122 13.7529,-14.8729 20.7842,-22.53709 7.0314,-7.66417 23.8314,-25.95889 37.3334,-40.65492 13.5019,-14.69602 27.099,-29.53261 30.2157,-32.9702 8.2445,-9.09348 7.8822,-12.23188 -3.2964,-28.55507 -4.9298,-7.19841 -14.0822,-20.58801 -20.3389,-29.75468 -8.3831,-12.28218 -12.1002,-16.66666 -14.1297,-16.66666 -1.8154,0 -6.7622,4.54406 -14.515,13.33333 -6.4686,7.33333 -13.9335,15.73333 -16.5888,18.66667 -2.6552,2.93333 -16.8086,18.83333 -31.4519,35.33333 -14.6433,16.5 -26.9365,30.3 -27.3184,30.66667 -0.3818,0.36667 -4.8889,5.46667 -10.0157,11.33333 -5.1269,5.86667 -9.6269,10.96667 -10,11.33334 -0.3732,0.36666 -5.1785,5.7654 -10.6785,11.99717 -5.5,6.23179 -11.9581,13.43179 -14.3512,16 -5.9828,6.42053 -24.0234,23.22099 -15.2528,38.97905 l 5.3934,9.69045 23.5677,38 c 12.9623,20.9 35.5858,57.5 50.2746,81.33333 32.7252,53.09854 39.8248,64.00001 41.6804,64.00001 0.7944,0 12.9742,-11.58504 27.0662,-25.74452 z"
       id="path897"
       sodipodi:nodetypes="sssssssssssssssssssssssssssssssssssssssssssssssssscssss" />
    <path
       style="mix-blend-mode:normal;fill:#fae588;fill-opacity:1;stroke:#fae588;stroke-width:2;stroke-miterlimit:4;stroke-dasharray:none;stroke-opacity:1"
       d="m 163.13679,566.98257 c -5.05259,-0.51499 -5.53087,-1.29622 -4.95612,-8.09546 0.27466,-3.24928 2.66425,-19.58125 5.3102,-36.29326 2.64595,-16.71201 11.88446,-75.00458 20.53002,-129.53904 8.64557,-54.53446 22.2554,-140.50786 30.24406,-191.052 7.98867,-50.54414 15.12018,-94.17595 15.84779,-96.95958 0.89,-3.40485 1.88519,-5.383432 3.04102,-6.045949 2.53954,-1.455664 67.88542,-1.408149 70.44037,0.05122 3.46113,1.976979 4.61173,-6.726517 -16.80752,127.138109 -8.86778,55.4212 -21.90539,136.97137 -28.97249,181.2226 -19.60796,122.77692 -25.34922,156.04932 -27.25584,157.95594 -0.40103,0.40103 -2.13384,1.05505 -3.85068,1.45337 -3.00267,0.69666 -56.97883,0.83595 -63.57081,0.16405 z"
       id="path873" />
    <path
       style="fill:#d0493a;fill-opacity:1;stroke:#d0493a;stroke-width:2;stroke-miterlimit:4;stroke-dasharray:none;stroke-opacity:1"
       d="m 442.59458,550.10652 c -3.50201,-4.43038 -19.42126,-29.84145 -75.52757,-120.56078 -20.29128,-32.80935 -38.50539,-62.72714 -40.47578,-66.48397 -3.26076,-6.21709 -3.55289,-7.24042 -3.25249,-11.39341 0.39663,-5.48332 3.89595,-12.96846 8.88263,-19.00021 1.89751,-2.29517 11.06791,-12.64896 20.37867,-23.00843 9.31077,-10.35947 38.19329,-42.76214 64.18338,-72.00593 44.53837,-50.11411 56.70904,-63.24711 58.61265,-63.24711 0.44406,0 2.20903,1.59235 3.92216,3.53857 4.13838,4.70144 33.52354,47.59233 36.55687,53.35879 3.99895,7.60212 3.24022,10.3656 -5.42674,19.7657 -2.61603,2.83733 -14.88514,16.22287 -27.26465,29.74564 -12.37953,13.52278 -30.70484,33.47441 -40.72292,44.33697 -20.65794,22.3993 -25.77368,28.46065 -25.77368,30.53777 0,1.92468 12.32309,23.33925 41.10883,71.43724 27.86876,46.56583 39.30672,66.65034 39.96986,70.18517 0.31488,1.6785 -8e-4,3.51858 -0.90821,5.29127 -1.37762,2.69171 -42.34811,44.59206 -48.08249,49.17375 l -2.97852,2.3798 z"
       id="path877" />
  </g>
</svg>
